<svg xmlns="http://www.w3.org/2000/svg" width="24" height="24" viewBox="0 0 24 24" role="img" aria-label="GitHub">
  <circle cx="12" cy="12" r="10" fill="#111827" />
  <path d="M12 6.4c-3.1 0-5.6 2.5-5.6 5.6 0 2.4 1.5 4.4 3.6 5.2.3.1.4-.1.4-.3v-1.1c-1.5.3-1.8-.6-1.8-.6-.2-.6-.6-.8-.6-.8-.5-.3 0-.3 0-.3.6 0 .9.6.9.6.5.9 1.3.7 1.6.5.1-.4.2-.7.4-.9-1.2-.1-2.4-.6-2.4-2.6 0-.6.2-1.1.6-1.6-.1-.1-.3-.7.1-1.5 0 0 .5-.2 1.7.6.5-.1 1-.2 1.5-.2s1 .1 1.5.2c1.2-.8 1.7-.6 1.7-.6.4.8.2 1.4.1 1.5.4.4.6 1 .6 1.6 0 2-1.2 2.5-2.4 2.6.2.2.4.5.4 1v1.5c0 .2.1.4.4.3 2.1-.8 3.6-2.8 3.6-5.2 0-3.1-2.5-5.6-5.6-5.6z" fill="#fff" />
</svg>
